<?xml version="1.0" encoding="utf-8"?>
<!-- Generator: Adobe Illustrator 22.1.0, SVG Export Plug-In . SVG Version: 6.00 Build 0)  -->
<svg version="1.1" id="Layer_1" xmlns="http://www.w3.org/2000/svg" xmlns:xlink="http://www.w3.org/1999/xlink" x="0px" y="0px"
	 viewBox="0 0 396 82.4" style="enable-background:new 0 0 396 82.4;" xml:space="preserve">
<style type="text/css">
	.st0{fill:#FFFFFF;}
</style>
<g id="Layer_9">
</g>
<g id="Layer_1_1_">
</g>
<g id="Layer_3">
	<g>
		<g>
			<path class="st0" d="M102.3,80.1c-0.1,0-0.1-0.1-0.1-0.2s0-0.2,0-0.3V79c0-0.3-0.1-0.5-0.2-0.6s-0.2-0.2-0.3-0.2
				c0.1-0.1,0.3-0.2,0.3-0.3c0.1-0.2,0.2-0.4,0.2-0.7c0-0.5-0.2-0.9-0.7-1.1c-0.2-0.1-0.5-0.2-0.9-0.2h-2h-0.1V76v4.3v0.1h0.1h0.6
				h0.1v-0.1v-1.8h1.2c0.2,0,0.4,0,0.5,0.1c0.2,0.1,0.2,0.2,0.3,0.5v0.7c0,0.2,0,0.3,0,0.4s0,0.1,0.1,0.2v0.1h0.1h0.7h0.1v-0.1
				L102.3,80.1L102.3,80.1L102.3,80.1z M101.2,77.7c-0.1,0.1-0.3,0.1-0.6,0.1h-1.3v-1.3h1.3c0.2,0,0.3,0,0.4,0.1
				c0.2,0.1,0.3,0.3,0.3,0.5C101.4,77.4,101.4,77.6,101.2,77.7z"/>
			<path class="st0" d="M103.2,75.3c-0.8-0.8-1.8-1.2-2.9-1.2c-2.2,0-4.1,1.8-4.1,4.1c0,1.1,0.4,2.1,1.2,2.9
				c0.8,0.8,1.8,1.2,2.9,1.2s2.1-0.4,2.9-1.2c0.8-0.8,1.2-1.8,1.2-2.9C104.4,77.1,104,76.1,103.2,75.3z M100.3,81.6
				c-0.9,0-1.8-0.3-2.4-1c-0.6-0.6-1-1.5-1-2.4s0.3-1.8,1-2.4c0.6-0.6,1.5-1,2.4-1s1.8,0.3,2.4,1c0.7,0.6,1,1.5,1,2.4
				C103.7,80.1,102.2,81.6,100.3,81.6z"/>
			<g>
				<path class="st0" d="M17.5,66.6c2.6,0.8,7.2,0.6,10.4-0.5l8.6-3.1v9c-0.5,0.1-1.2,0.2-1.7,0.3C26.2,73.7,17,73.1,8,70.1
					c-8.4-2.4-9.8-7.3-6-10.2c3.6-2.6,9.6-4.6,9.6-4.6l24.9-8.9v10.1l-18,6.4C15.4,64.2,15,65.8,17.5,66.6z"/>
				<path class="st0" d="M105.9,63.1c-2.1,2.6-7.2,4.5-7.2,4.5l-38,13.7V71.2l28-10c3.2-1.1,3.7-2.7,1.1-3.6
					c-2.6-0.8-7.2-0.6-10.4,0.5l-18.7,6.6V54.3l1.1-0.4c0,0,5.4-1.9,13-2.8c7.6-0.8,16.9,0.1,24.1,2.9C107,56.6,108,60.5,105.9,63.1
					z"/>
				<path class="st0" d="M64.3,45.9V20.2c0-3-0.6-5.8-3.4-6.6c-2.2-0.7-3.5,1.3-3.5,4.3v64.5L40,76.9V0c7.4,1.4,18.2,4.6,24,6.6
					C78.7,11.7,83.7,18,83.7,32.1C83.7,45.9,75.1,51.2,64.3,45.9z"/>
			</g>
		</g>
		<g>
			<g>
				<path class="st0" d="M379.7,59.5h-10.6h0.4c-0.2,0-0.4-0.2-0.4-0.4V24.9c0-5.3-3.6-7-8.7-3.8l-61.2,37.6
					c-2.4,1.5-3.2,3.1-2.6,4.4c0.5,1.1,1.8,1.8,4.5,1.8H358c0.2,0,0.3,0.1,0.3,0.3V70c0,0.2,0.2,0.4,0.4,0.4h10.2
					c0.2,0,0.4-0.2,0.4-0.4v-4.7c0-0.2,0.2-0.4,0.4-0.4h10.2c0.2,0,0.4-0.2,0.4-0.4v-4.7C380.1,59.6,379.9,59.5,379.7,59.5z
					 M358.3,59.1c0,0.2-0.2,0.4-0.4,0.4h-47.7c-0.4,0-0.6-0.1-0.6-0.2c-0.1-0.2,0.1-0.4,0.3-0.6l47.4-29.2c0.3-0.2,0.9-0.2,0.9,0.5
					v29.1H358.3z"/>
				<path class="st0" d="M202.8,46.8H160c-4,0-6.7,3.3-6.7,8.1v15c0,0.2-0.2,0.4-0.4,0.4h-10.2c-0.2,0-0.4-0.2-0.4-0.4v-15
					c0-7.7,5.2-13.6,12.2-13.6h44.7c4.8,0,7.1-3.4,7.1-8.2s-2.3-8.2-7.1-8.2h-56.5c-0.2,0-0.4-0.2-0.4-0.4v-4.7
					c0-0.2,0.2-0.4,0.4-0.4h60.1c9.6,0,14.3,5.9,14.3,13.7C217.1,40.9,212.4,46.8,202.8,46.8z"/>
				<path class="st0" d="M300.9,24.9h-29.6c-4.8,0-7.1,3.4-7.1,8.2v23.5c0,7.7-4.7,13.7-14.4,13.7H215c-0.2,0-0.4-0.2-0.4-0.4v-4.7
					c0-0.2,0.2-0.4,0.4-0.4h31.2c4.8,0,7.1-3.4,7.1-8.2V33.2c0-7.7,4.7-13.7,14.3-13.7h33.2c0.2,0,0.4,0.2,0.4,0.4v4.7
					C301.2,24.8,301.1,24.9,300.9,24.9z"/>
			</g>
			<g>
				<polygon class="st0" points="395.3,70.3 395.3,65.7 393.7,70.3 393,70.3 391.4,65.7 391.4,70.3 390.6,70.3 390.6,64.6 
					391.7,64.6 393.3,69.5 395,64.6 396,64.6 396,70.3 				"/>
				<polygon class="st0" points="388.1,65.3 388.1,70.3 387.3,70.3 387.3,65.3 385.4,65.3 385.4,64.6 389.9,64.6 389.9,65.3 				"/>
			</g>
		</g>
	</g>
</g>
<g id="Layer_5">
</g>
<g id="Layer_6">
</g>
<g id="Layer_7">
</g>
<g id="Layer_8">
</g>
<g id="Layer_2_1_">
</g>
</svg>
