<?xml version="1.0" encoding="utf-8"?>
<!-- Generator: Adobe Illustrator 22.1.0, SVG Export Plug-In . SVG Version: 6.00 Build 0)  -->
<svg version="1.1" id="Layer_1" xmlns="http://www.w3.org/2000/svg" xmlns:xlink="http://www.w3.org/1999/xlink" x="0px" y="0px"
	 viewBox="0 0 104 104" style="enable-background:new 0 0 104 104;" xml:space="preserve">
<g id="surface1">
	<path d="M40,14v73.4l15.9,4.9V31c0-1.6,0.2-2.8,0.9-3.5c0.7-0.9,1.3-1,2.2-0.6c2.3,0.7,3.4,2.8,3.4,6.1v24.6
		c5.1,2.4,9.8,2.7,13.1,0.1c3.5-2.4,5.4-6.8,5.4-13.2c0-6.8-1.3-12-4.2-15.4c-2.7-3.6-7.5-6.6-14.5-9C53.3,17.3,46,15.2,40,14z
		 M35.1,58.4l-3.1,1l-19.6,7L9,67.8c-5.1,2.2-7.9,4.5-7.8,6.5c0.3,3,3.7,5.1,9.8,6.8c7.9,2.1,15.9,2.6,24.1,1.4V74L32,75.1l-3.5,1.4
		l-5.6,1.1L17.5,77c-1.1-0.7-1.4-1.5-0.8-2.1c0.7-0.4,1.7-1,2.8-1.4l3.6-1.2l12-4.2V58.4z M80.6,62.2c-1.5-0.1-3,0.1-4.4,0.1
		c-5.2,0.1-10.6,1-16.2,2.8V75l11.1-3.9l5.8-2c0,0,2.2-0.6,3.8-1c2.4-0.6,5,0.2,5,0.2c1.5,0.1,2.2,0.7,2.5,1.4
		c0.3,0.8-0.7,1.4-2.8,2.1l-5,2L60,81.1v9.6l9.5-3.4l22.9-8.1l2.8-1.2c5.4-2,7.9-4.2,7.6-6.9c-0.1-2.6-3.2-4.6-8.6-6.4
		C89.6,63.2,85,62.4,80.6,62.2z"/>
</g>
</svg>
